<mxfile host="app.diagrams.net" modified="2024-06-17T03:51:11.198Z" agent="Mozilla/5.0 (Macintosh; Intel Mac OS X 10_15_7) AppleWebKit/605.1.15 (KHTML, like Gecko) Version/17.5 Safari/605.1.15" etag="bGJ0xfaw582LwoyrdfuC" version="24.5.4" type="device">
  <diagram name="Page-1" id="JR2kuJdq1zbRZiOPOg9G">
    <mxGraphModel dx="2261" dy="827" grid="1" gridSize="10" guides="1" tooltips="1" connect="1" arrows="1" fold="1" page="1" pageScale="1" pageWidth="827" pageHeight="1169" math="0" shadow="0">
      <root>
        <mxCell id="0" />
        <mxCell id="1" parent="0" />
        <mxCell id="3Fzgw3bwLbgeH6Izsh_8-1" value="" style="rounded=0;whiteSpace=wrap;html=1;" vertex="1" parent="1">
          <mxGeometry x="-20" y="60" width="910" height="900" as="geometry" />
        </mxCell>
        <mxCell id="I3bMTELduhpEv7hFtchR-62" value="" style="endArrow=classic;html=1;rounded=0;fillColor=#0050ef;strokeColor=#001DBC;" parent="1" edge="1">
          <mxGeometry width="50" height="50" relative="1" as="geometry">
            <mxPoint x="97" y="190" as="sourcePoint" />
            <mxPoint x="210" y="190" as="targetPoint" />
          </mxGeometry>
        </mxCell>
        <mxCell id="I3bMTELduhpEv7hFtchR-63" value="&lt;b&gt;SSH&lt;/b&gt;" style="text;html=1;align=center;verticalAlign=middle;whiteSpace=wrap;rounded=0;" parent="1" vertex="1">
          <mxGeometry x="117" y="150" width="60" height="30" as="geometry" />
        </mxCell>
        <mxCell id="I3bMTELduhpEv7hFtchR-64" value="" style="endArrow=classic;html=1;rounded=0;fillColor=#0050ef;strokeColor=#001DBC;" parent="1" edge="1">
          <mxGeometry width="50" height="50" relative="1" as="geometry">
            <mxPoint x="280" y="190" as="sourcePoint" />
            <mxPoint x="410" y="190" as="targetPoint" />
          </mxGeometry>
        </mxCell>
        <mxCell id="I3bMTELduhpEv7hFtchR-76" value="" style="image;aspect=fixed;html=1;points=[];align=center;fontSize=12;image=img/lib/azure2/storage/StorSimple_Data_Managers.svg;" parent="1" vertex="1">
          <mxGeometry x="55.19" y="840" width="48" height="64" as="geometry" />
        </mxCell>
        <mxCell id="I3bMTELduhpEv7hFtchR-77" value="" style="image;aspect=fixed;html=1;points=[];align=center;fontSize=12;image=img/lib/azure2/storage/StorSimple_Data_Managers.svg;" parent="1" vertex="1">
          <mxGeometry x="127.19" y="840" width="48" height="64" as="geometry" />
        </mxCell>
        <mxCell id="I3bMTELduhpEv7hFtchR-78" value="" style="image;aspect=fixed;html=1;points=[];align=center;fontSize=12;image=img/lib/azure2/storage/StorSimple_Data_Managers.svg;" parent="1" vertex="1">
          <mxGeometry x="191.69" y="840" width="48" height="64" as="geometry" />
        </mxCell>
        <mxCell id="I3bMTELduhpEv7hFtchR-79" value="" style="image;aspect=fixed;html=1;points=[];align=center;fontSize=12;image=img/lib/azure2/storage/StorSimple_Data_Managers.svg;" parent="1" vertex="1">
          <mxGeometry x="263.69" y="840" width="48" height="64" as="geometry" />
        </mxCell>
        <mxCell id="I3bMTELduhpEv7hFtchR-80" value="" style="image;aspect=fixed;html=1;points=[];align=center;fontSize=12;image=img/lib/azure2/storage/StorSimple_Data_Managers.svg;" parent="1" vertex="1">
          <mxGeometry x="331.69" y="840" width="48" height="64" as="geometry" />
        </mxCell>
        <mxCell id="I3bMTELduhpEv7hFtchR-81" value="" style="image;aspect=fixed;html=1;points=[];align=center;fontSize=12;image=img/lib/azure2/storage/StorSimple_Data_Managers.svg;" parent="1" vertex="1">
          <mxGeometry x="403.69" y="840" width="48" height="64" as="geometry" />
        </mxCell>
        <mxCell id="I3bMTELduhpEv7hFtchR-82" value="" style="image;aspect=fixed;html=1;points=[];align=center;fontSize=12;image=img/lib/azure2/storage/StorSimple_Data_Managers.svg;" parent="1" vertex="1">
          <mxGeometry x="468.19" y="840" width="48" height="64" as="geometry" />
        </mxCell>
        <mxCell id="I3bMTELduhpEv7hFtchR-83" value="" style="image;aspect=fixed;html=1;points=[];align=center;fontSize=12;image=img/lib/azure2/storage/StorSimple_Data_Managers.svg;" parent="1" vertex="1">
          <mxGeometry x="540.19" y="840" width="48" height="64" as="geometry" />
        </mxCell>
        <mxCell id="I3bMTELduhpEv7hFtchR-84" value="" style="image;aspect=fixed;html=1;points=[];align=center;fontSize=12;image=img/lib/azure2/storage/StorSimple_Data_Managers.svg;" parent="1" vertex="1">
          <mxGeometry x="602.94" y="840" width="48" height="64" as="geometry" />
        </mxCell>
        <mxCell id="I3bMTELduhpEv7hFtchR-85" value="" style="image;aspect=fixed;html=1;points=[];align=center;fontSize=12;image=img/lib/azure2/storage/StorSimple_Data_Managers.svg;" parent="1" vertex="1">
          <mxGeometry x="667.44" y="840" width="48" height="64" as="geometry" />
        </mxCell>
        <mxCell id="I3bMTELduhpEv7hFtchR-87" value="" style="image;aspect=fixed;html=1;points=[];align=center;fontSize=12;image=img/lib/azure2/general/Dev_Console.svg;" parent="1" vertex="1">
          <mxGeometry x="30" y="158.5" width="65" height="52" as="geometry" />
        </mxCell>
        <mxCell id="I3bMTELduhpEv7hFtchR-88" value="" style="image;aspect=fixed;html=1;points=[];align=center;fontSize=12;image=img/lib/azure2/other/Fiji.svg;" parent="1" vertex="1">
          <mxGeometry x="40" y="535" width="75.44" height="95" as="geometry" />
        </mxCell>
        <mxCell id="I3bMTELduhpEv7hFtchR-89" value="" style="image;aspect=fixed;html=1;points=[];align=center;fontSize=12;image=img/lib/azure2/other/Fiji.svg;" parent="1" vertex="1">
          <mxGeometry x="41.56" y="670" width="75.44" height="95" as="geometry" />
        </mxCell>
        <mxCell id="I3bMTELduhpEv7hFtchR-90" value="" style="image;aspect=fixed;html=1;points=[];align=center;fontSize=12;image=img/lib/azure2/other/Fiji.svg;" parent="1" vertex="1">
          <mxGeometry x="160" y="535" width="75.44" height="95" as="geometry" />
        </mxCell>
        <mxCell id="I3bMTELduhpEv7hFtchR-91" value="" style="image;aspect=fixed;html=1;points=[];align=center;fontSize=12;image=img/lib/azure2/other/Fiji.svg;" parent="1" vertex="1">
          <mxGeometry x="161.56" y="670" width="75.44" height="95" as="geometry" />
        </mxCell>
        <mxCell id="I3bMTELduhpEv7hFtchR-92" value="" style="image;aspect=fixed;html=1;points=[];align=center;fontSize=12;image=img/lib/azure2/other/Fiji.svg;" parent="1" vertex="1">
          <mxGeometry x="280" y="535" width="75.44" height="95" as="geometry" />
        </mxCell>
        <mxCell id="I3bMTELduhpEv7hFtchR-93" value="" style="image;aspect=fixed;html=1;points=[];align=center;fontSize=12;image=img/lib/azure2/other/Fiji.svg;" parent="1" vertex="1">
          <mxGeometry x="281.56" y="670" width="75.44" height="95" as="geometry" />
        </mxCell>
        <mxCell id="I3bMTELduhpEv7hFtchR-94" value="" style="image;aspect=fixed;html=1;points=[];align=center;fontSize=12;image=img/lib/azure2/other/Fiji.svg;" parent="1" vertex="1">
          <mxGeometry x="400" y="535" width="75.44" height="95" as="geometry" />
        </mxCell>
        <mxCell id="I3bMTELduhpEv7hFtchR-95" value="" style="image;aspect=fixed;html=1;points=[];align=center;fontSize=12;image=img/lib/azure2/other/Fiji.svg;" parent="1" vertex="1">
          <mxGeometry x="401.56" y="670" width="75.44" height="95" as="geometry" />
        </mxCell>
        <mxCell id="I3bMTELduhpEv7hFtchR-96" value="" style="image;aspect=fixed;html=1;points=[];align=center;fontSize=12;image=img/lib/azure2/other/Fiji.svg;" parent="1" vertex="1">
          <mxGeometry x="520" y="535" width="75.44" height="95" as="geometry" />
        </mxCell>
        <mxCell id="I3bMTELduhpEv7hFtchR-97" value="" style="image;aspect=fixed;html=1;points=[];align=center;fontSize=12;image=img/lib/azure2/other/Fiji.svg;" parent="1" vertex="1">
          <mxGeometry x="521.56" y="670" width="75.44" height="95" as="geometry" />
        </mxCell>
        <mxCell id="I3bMTELduhpEv7hFtchR-98" value="" style="image;aspect=fixed;html=1;points=[];align=center;fontSize=12;image=img/lib/azure2/other/Fiji.svg;" parent="1" vertex="1">
          <mxGeometry x="640" y="535" width="75.44" height="95" as="geometry" />
        </mxCell>
        <mxCell id="I3bMTELduhpEv7hFtchR-99" value="" style="image;aspect=fixed;html=1;points=[];align=center;fontSize=12;image=img/lib/azure2/other/Fiji.svg;" parent="1" vertex="1">
          <mxGeometry x="641.56" y="670" width="75.44" height="95" as="geometry" />
        </mxCell>
        <mxCell id="I3bMTELduhpEv7hFtchR-102" value="" style="image;aspect=fixed;html=1;points=[];align=center;fontSize=12;image=img/lib/azure2/storage/Azure_Stack_Edge.svg;" parent="1" vertex="1">
          <mxGeometry x="212" y="162.5" width="68" height="48" as="geometry" />
        </mxCell>
        <mxCell id="I3bMTELduhpEv7hFtchR-105" value="" style="image;aspect=fixed;html=1;points=[];align=center;fontSize=12;image=img/lib/azure2/other/Fiji.svg;" parent="1" vertex="1">
          <mxGeometry x="414" y="150" width="75.44" height="95" as="geometry" />
        </mxCell>
        <mxCell id="I3bMTELduhpEv7hFtchR-106" value="" style="image;aspect=fixed;html=1;points=[];align=center;fontSize=12;image=img/lib/azure2/other/Fiji.svg;" parent="1" vertex="1">
          <mxGeometry x="534" y="150" width="75.44" height="95" as="geometry" />
        </mxCell>
        <mxCell id="I3bMTELduhpEv7hFtchR-107" value="" style="image;aspect=fixed;html=1;points=[];align=center;fontSize=12;image=img/lib/azure2/other/Fiji.svg;" parent="1" vertex="1">
          <mxGeometry x="654" y="150" width="75.44" height="95" as="geometry" />
        </mxCell>
        <mxCell id="I3bMTELduhpEv7hFtchR-108" value="" style="image;aspect=fixed;html=1;points=[];align=center;fontSize=12;image=img/lib/azure2/other/Cloud_Services_(extended_support).svg;" parent="1" vertex="1">
          <mxGeometry x="400.19" y="350" width="68" height="57.99999999999999" as="geometry" />
        </mxCell>
        <mxCell id="I3bMTELduhpEv7hFtchR-111" value="" style="endArrow=classic;html=1;rounded=0;entryX=0.593;entryY=0;entryDx=0;entryDy=0;entryPerimeter=0;fillColor=#0050ef;strokeColor=#001DBC;" parent="1" target="I3bMTELduhpEv7hFtchR-108" edge="1">
          <mxGeometry width="50" height="50" relative="1" as="geometry">
            <mxPoint x="440" y="247" as="sourcePoint" />
            <mxPoint x="440" y="550" as="targetPoint" />
          </mxGeometry>
        </mxCell>
        <mxCell id="I3bMTELduhpEv7hFtchR-112" value="&lt;font style=&quot;font-size: 15px;&quot;&gt;Request resources&lt;/font&gt;" style="edgeLabel;html=1;align=center;verticalAlign=middle;resizable=0;points=[];" parent="I3bMTELduhpEv7hFtchR-111" vertex="1" connectable="0">
          <mxGeometry x="-0.1555" y="-1" relative="1" as="geometry">
            <mxPoint x="1" y="10" as="offset" />
          </mxGeometry>
        </mxCell>
        <mxCell id="I3bMTELduhpEv7hFtchR-114" value="" style="endArrow=classic;html=1;rounded=0;fillColor=#0050ef;strokeColor=#001DBC;" parent="1" edge="1">
          <mxGeometry width="50" height="50" relative="1" as="geometry">
            <mxPoint x="440" y="409" as="sourcePoint" />
            <mxPoint x="440" y="534" as="targetPoint" />
          </mxGeometry>
        </mxCell>
        <mxCell id="I3bMTELduhpEv7hFtchR-115" value="&lt;font style=&quot;font-size: 15px;&quot;&gt;Allocate resources&lt;/font&gt;" style="edgeLabel;html=1;align=center;verticalAlign=middle;resizable=0;points=[];" parent="1" vertex="1" connectable="0">
          <mxGeometry x="437.7202434523275" y="470.002030051542" as="geometry" />
        </mxCell>
        <mxCell id="I3bMTELduhpEv7hFtchR-116" value="" style="endArrow=none;html=1;rounded=0;fillColor=#0050ef;strokeColor=#001DBC;" parent="1" edge="1">
          <mxGeometry width="50" height="50" relative="1" as="geometry">
            <mxPoint x="790" y="270" as="sourcePoint" />
            <mxPoint x="790" y="110" as="targetPoint" />
          </mxGeometry>
        </mxCell>
        <mxCell id="I3bMTELduhpEv7hFtchR-117" value="Login Nodes" style="edgeLabel;html=1;align=center;verticalAlign=middle;resizable=0;points=[];fontStyle=1;fontSize=12;" parent="I3bMTELduhpEv7hFtchR-116" vertex="1" connectable="0">
          <mxGeometry x="0.0833" y="2" relative="1" as="geometry">
            <mxPoint as="offset" />
          </mxGeometry>
        </mxCell>
        <mxCell id="I3bMTELduhpEv7hFtchR-118" value="" style="endArrow=none;html=1;rounded=0;fillColor=#0050ef;strokeColor=#001DBC;" parent="1" edge="1">
          <mxGeometry width="50" height="50" relative="1" as="geometry">
            <mxPoint x="790" y="420" as="sourcePoint" />
            <mxPoint x="790" y="320" as="targetPoint" />
          </mxGeometry>
        </mxCell>
        <mxCell id="I3bMTELduhpEv7hFtchR-119" value="Job Scheduler" style="edgeLabel;html=1;align=center;verticalAlign=middle;resizable=0;points=[];fontStyle=1;fontSize=12;" parent="I3bMTELduhpEv7hFtchR-118" vertex="1" connectable="0">
          <mxGeometry x="0.0833" y="2" relative="1" as="geometry">
            <mxPoint as="offset" />
          </mxGeometry>
        </mxCell>
        <mxCell id="I3bMTELduhpEv7hFtchR-120" value="" style="endArrow=none;html=1;rounded=0;fillColor=#0050ef;strokeColor=#001DBC;" parent="1" edge="1">
          <mxGeometry width="50" height="50" relative="1" as="geometry">
            <mxPoint x="790" y="770" as="sourcePoint" />
            <mxPoint x="790" y="520" as="targetPoint" />
          </mxGeometry>
        </mxCell>
        <mxCell id="I3bMTELduhpEv7hFtchR-121" value="Compute Nodes" style="edgeLabel;html=1;align=center;verticalAlign=middle;resizable=0;points=[];fontStyle=1;fontSize=12;" parent="I3bMTELduhpEv7hFtchR-120" vertex="1" connectable="0">
          <mxGeometry x="0.0833" y="2" relative="1" as="geometry">
            <mxPoint as="offset" />
          </mxGeometry>
        </mxCell>
        <mxCell id="I3bMTELduhpEv7hFtchR-123" value="" style="endArrow=none;html=1;rounded=0;fillColor=#0050ef;strokeColor=#001DBC;" parent="1" edge="1">
          <mxGeometry width="50" height="50" relative="1" as="geometry">
            <mxPoint x="790" y="940" as="sourcePoint" />
            <mxPoint x="790" y="800" as="targetPoint" />
          </mxGeometry>
        </mxCell>
        <mxCell id="I3bMTELduhpEv7hFtchR-124" value="Storage" style="edgeLabel;html=1;align=center;verticalAlign=middle;resizable=0;points=[];fontStyle=1;fontSize=12;" parent="I3bMTELduhpEv7hFtchR-123" vertex="1" connectable="0">
          <mxGeometry x="0.0833" y="2" relative="1" as="geometry">
            <mxPoint as="offset" />
          </mxGeometry>
        </mxCell>
      </root>
    </mxGraphModel>
  </diagram>
</mxfile>
